<?xml version="1.0" encoding="UTF-8" standalone="no"?>
<!DOCTYPE svg PUBLIC "-//W3C//DTD SVG 1.1//EN"
 "http://www.w3.org/Graphics/SVG/1.1/DTD/svg11.dtd">
<!-- Generated by graphviz version 2.42.3 (20191010.1750)
 -->
<!-- Title: Process flow diagram Pages: 1 -->
<svg width="636pt" height="98pt"
 viewBox="0.00 0.00 636.00 98.00" xmlns="http://www.w3.org/2000/svg" xmlns:xlink="http://www.w3.org/1999/xlink">
<g id="graph0" class="graph" transform="scale(1 1) rotate(0) translate(4 94)">
<title>Process flow diagram</title>
<polygon fill="white" stroke="transparent" points="-4,4 -4,-94 632,-94 632,4 -4,4"/>
<!-- N2 -->
<g id="node1" class="node">
<title>N2</title>
<text text-anchor="middle" x="297.5" y="-14.3" font-family="Times,serif" font-size="14.00">Nitrogen</text>
</g>
<!-- HP -->
<g id="node6" class="node">
<title>HP</title>
<polygon fill="none" stroke="red" points="537,-71.5 439,-71.5 439,-18.5 537,-18.5 537,-71.5"/>
<text text-anchor="middle" x="488" y="-56.3" font-family="Times,serif" font-size="14.00">Haber Process</text>
<text text-anchor="middle" x="488" y="-41.3" font-family="Times,serif" font-size="14.00">T=673&#45;773 K</text>
<text text-anchor="middle" x="488" y="-26.3" font-family="Times,serif" font-size="14.00">P=150&#45;250 bar</text>
</g>
<!-- N2&#45;&gt;HP -->
<g id="edge1" class="edge">
<title>N2&#45;&gt;HP</title>
<path fill="none" stroke="black" d="M330.09,-20.45C354.9,-22.59 390.27,-26.12 421,-31 423.53,-31.4 426.11,-31.84 428.71,-32.3"/>
<polygon fill="black" stroke="black" points="428.33,-35.79 438.81,-34.18 429.62,-28.9 428.33,-35.79"/>
<text text-anchor="middle" x="386" y="-34.8" font-family="Times,serif" font-size="14.00">compression</text>
</g>
<!-- H2 -->
<g id="node2" class="node">
<title>H2</title>
<text text-anchor="middle" x="297.5" y="-68.3" font-family="Times,serif" font-size="14.00" fill="green">Hydrogen</text>
</g>
<!-- H2&#45;&gt;HP -->
<g id="edge2" class="edge">
<title>H2&#45;&gt;HP</title>
<path fill="none" stroke="black" d="M333.07,-67.05C359.83,-63.22 397.49,-57.82 428.86,-53.33"/>
<polygon fill="black" stroke="black" points="429.4,-56.79 438.8,-51.9 428.41,-49.86 429.4,-56.79"/>
<text text-anchor="middle" x="386" y="-67.8" font-family="Times,serif" font-size="14.00">compression</text>
</g>
<!-- Air -->
<g id="node3" class="node">
<title>Air</title>
<text text-anchor="middle" x="27" y="-14.3" font-family="Times,serif" font-size="14.00">Air</text>
</g>
<!-- CD -->
<g id="node7" class="node">
<title>CD</title>
<polygon fill="none" stroke="black" points="225,-36 91,-36 91,0 225,0 225,-36"/>
<text text-anchor="middle" x="158" y="-14.3" font-family="Times,serif" font-size="14.00">Cryogenic distillation</text>
</g>
<!-- Air&#45;&gt;CD -->
<g id="edge4" class="edge">
<title>Air&#45;&gt;CD</title>
<path fill="none" stroke="black" d="M54.11,-18C62.08,-18 71.29,-18 80.86,-18"/>
<polygon fill="black" stroke="black" points="80.91,-21.5 90.91,-18 80.91,-14.5 80.91,-21.5"/>
</g>
<!-- NH3 -->
<g id="node4" class="node">
<title>NH3</title>
<text text-anchor="middle" x="601" y="-41.3" font-family="Times,serif" font-size="14.00">NH3</text>
</g>
<!-- Water -->
<g id="node5" class="node">
<title>Water</title>
<text text-anchor="middle" x="27" y="-68.3" font-family="Times,serif" font-size="14.00">Water</text>
</g>
<!-- Electrolysis -->
<g id="node8" class="node">
<title>Electrolysis</title>
<polygon fill="none" stroke="black" points="198,-90 118,-90 118,-54 198,-54 198,-90"/>
<text text-anchor="middle" x="158" y="-68.3" font-family="Times,serif" font-size="14.00">Electrolysis</text>
</g>
<!-- Water&#45;&gt;Electrolysis -->
<g id="edge6" class="edge">
<title>Water&#45;&gt;Electrolysis</title>
<path fill="none" stroke="black" d="M54.11,-72C69.44,-72 89.32,-72 107.52,-72"/>
<polygon fill="black" stroke="black" points="107.7,-75.5 117.7,-72 107.7,-68.5 107.7,-75.5"/>
</g>
<!-- HP&#45;&gt;NH3 -->
<g id="edge3" class="edge">
<title>HP&#45;&gt;NH3</title>
<path fill="none" stroke="black" d="M537.04,-45C546.04,-45 555.3,-45 563.86,-45"/>
<polygon fill="black" stroke="black" points="563.89,-48.5 573.89,-45 563.89,-41.5 563.89,-48.5"/>
</g>
<!-- CD&#45;&gt;N2 -->
<g id="edge5" class="edge">
<title>CD&#45;&gt;N2</title>
<path fill="none" stroke="black" d="M225.33,-18C235.31,-18 245.36,-18 254.63,-18"/>
<polygon fill="black" stroke="black" points="254.73,-21.5 264.73,-18 254.73,-14.5 254.73,-21.5"/>
</g>
<!-- Electrolysis&#45;&gt;H2 -->
<g id="edge7" class="edge">
<title>Electrolysis&#45;&gt;H2</title>
<path fill="none" stroke="black" d="M198.03,-72C214.6,-72 234.02,-72 251.22,-72"/>
<polygon fill="black" stroke="black" points="251.59,-75.5 261.59,-72 251.59,-68.5 251.59,-75.5"/>
</g>
</g>
</svg>
