<?xml version="1.0" encoding="UTF-8" standalone="no"?>
<!DOCTYPE svg PUBLIC "-//W3C//DTD SVG 1.1//EN"
 "http://www.w3.org/Graphics/SVG/1.1/DTD/svg11.dtd">
<!-- Generated by graphviz version 2.42.3 (20191010.1750)
 -->
<!-- Title: Process flow diagram Pages: 1 -->
<svg width="635pt" height="98pt"
 viewBox="0.00 0.00 635.00 98.00" xmlns="http://www.w3.org/2000/svg" xmlns:xlink="http://www.w3.org/1999/xlink">
<g id="graph0" class="graph" transform="scale(1 1) rotate(0) translate(4 94)">
<title>Process flow diagram</title>
<polygon fill="white" stroke="transparent" points="-4,4 -4,-94 631,-94 631,4 -4,4"/>
<!-- N2 -->
<g id="node1" class="node">
<title>N2</title>
<text text-anchor="middle" x="297.5" y="-14.3" font-family="Times,serif" font-size="14.00">Nitrogen</text>
</g>
<!-- HP -->
<g id="node6" class="node">
<title>HP</title>
<polygon fill="none" stroke="black" points="481,-63 386,-63 386,-27 481,-27 481,-63"/>
<text text-anchor="middle" x="433.5" y="-41.3" font-family="Times,serif" font-size="14.00">Haber Process</text>
</g>
<!-- N2&#45;&gt;HP -->
<g id="edge1" class="edge">
<title>N2&#45;&gt;HP</title>
<path fill="none" stroke="black" d="M330.02,-23.7C341.94,-25.9 355.61,-28.5 368,-31 370.51,-31.51 373.07,-32.03 375.65,-32.57"/>
<polygon fill="black" stroke="black" points="375.17,-36.04 385.68,-34.67 376.61,-29.19 375.17,-36.04"/>
<text text-anchor="middle" x="359.5" y="-34.8" font-family="Times,serif" font-size="14.00">N2</text>
</g>
<!-- H2 -->
<g id="node2" class="node">
<title>H2</title>
<text text-anchor="middle" x="297.5" y="-68.3" font-family="Times,serif" font-size="14.00">Hydrogen</text>
</g>
<!-- H2&#45;&gt;HP -->
<g id="edge2" class="edge">
<title>H2&#45;&gt;HP</title>
<path fill="none" stroke="black" d="M333.01,-65.05C346.11,-62.41 361.41,-59.32 376.02,-56.38"/>
<polygon fill="black" stroke="black" points="376.87,-59.78 385.99,-54.37 375.49,-52.92 376.87,-59.78"/>
<text text-anchor="middle" x="359.5" y="-63.8" font-family="Times,serif" font-size="14.00">H2</text>
</g>
<!-- Air -->
<g id="node3" class="node">
<title>Air</title>
<text text-anchor="middle" x="27" y="-14.3" font-family="Times,serif" font-size="14.00">Air</text>
</g>
<!-- CD -->
<g id="node7" class="node">
<title>CD</title>
<polygon fill="none" stroke="black" points="225,-36 91,-36 91,0 225,0 225,-36"/>
<text text-anchor="middle" x="158" y="-14.3" font-family="Times,serif" font-size="14.00">Cryogenic distillation</text>
</g>
<!-- Air&#45;&gt;CD -->
<g id="edge4" class="edge">
<title>Air&#45;&gt;CD</title>
<path fill="none" stroke="black" d="M54.11,-18C62.08,-18 71.29,-18 80.86,-18"/>
<polygon fill="black" stroke="black" points="80.91,-21.5 90.91,-18 80.91,-14.5 80.91,-21.5"/>
</g>
<!-- NH3 -->
<g id="node4" class="node">
<title>NH3</title>
<text text-anchor="middle" x="600" y="-41.3" font-family="Times,serif" font-size="14.00">NH3</text>
</g>
<!-- Water -->
<g id="node5" class="node">
<title>Water</title>
<text text-anchor="middle" x="27" y="-68.3" font-family="Times,serif" font-size="14.00">Water</text>
</g>
<!-- Electrolysis -->
<g id="node8" class="node">
<title>Electrolysis</title>
<polygon fill="none" stroke="black" points="198,-90 118,-90 118,-54 198,-54 198,-90"/>
<text text-anchor="middle" x="158" y="-68.3" font-family="Times,serif" font-size="14.00">Electrolysis</text>
</g>
<!-- Water&#45;&gt;Electrolysis -->
<g id="edge6" class="edge">
<title>Water&#45;&gt;Electrolysis</title>
<path fill="none" stroke="black" d="M54.11,-72C69.44,-72 89.32,-72 107.52,-72"/>
<polygon fill="black" stroke="black" points="107.7,-75.5 117.7,-72 107.7,-68.5 107.7,-75.5"/>
</g>
<!-- HP&#45;&gt;NH3 -->
<g id="edge3" class="edge">
<title>HP&#45;&gt;NH3</title>
<path fill="none" stroke="black" d="M481.2,-45C507.01,-45 538.62,-45 562.59,-45"/>
<polygon fill="black" stroke="black" points="562.68,-48.5 572.68,-45 562.68,-41.5 562.68,-48.5"/>
<text text-anchor="middle" x="527" y="-48.8" font-family="Times,serif" font-size="14.00">Ammonia</text>
</g>
<!-- CD&#45;&gt;N2 -->
<g id="edge5" class="edge">
<title>CD&#45;&gt;N2</title>
<path fill="none" stroke="black" d="M225.33,-18C235.31,-18 245.36,-18 254.63,-18"/>
<polygon fill="black" stroke="black" points="254.73,-21.5 264.73,-18 254.73,-14.5 254.73,-21.5"/>
</g>
<!-- Electrolysis&#45;&gt;H2 -->
<g id="edge7" class="edge">
<title>Electrolysis&#45;&gt;H2</title>
<path fill="none" stroke="black" d="M198.03,-72C214.6,-72 234.02,-72 251.22,-72"/>
<polygon fill="black" stroke="black" points="251.59,-75.5 261.59,-72 251.59,-68.5 251.59,-75.5"/>
</g>
</g>
</svg>
