<?xml version="1.0" encoding="UTF-8" standalone="no"?>
<!DOCTYPE svg PUBLIC "-//W3C//DTD SVG 1.1//EN"
 "http://www.w3.org/Graphics/SVG/1.1/DTD/svg11.dtd">
<!-- Generated by graphviz version 2.42.3 (20191010.1750)
 -->
<!-- Title: Process flow diagram Pages: 1 -->
<svg width="654pt" height="152pt"
 viewBox="0.00 0.00 654.00 152.00" xmlns="http://www.w3.org/2000/svg" xmlns:xlink="http://www.w3.org/1999/xlink">
<g id="graph0" class="graph" transform="scale(1 1) rotate(0) translate(4 148)">
<title>Process flow diagram</title>
<polygon fill="white" stroke="transparent" points="-4,4 -4,-148 650,-148 650,4 -4,4"/>
<!-- CO2 -->
<g id="node1" class="node">
<title>CO2</title>
<text text-anchor="middle" x="258.5" y="-14.3" font-family="Times,serif" font-size="14.00">Carbon dioxide</text>
</g>
<!-- HP -->
<g id="node6" class="node">
<title>HP</title>
<polygon fill="none" stroke="black" points="540,-98.5 418,-98.5 418,-45.5 540,-45.5 540,-98.5"/>
<text text-anchor="middle" x="479" y="-83.3" font-family="Times,serif" font-size="14.00">Methanol synthesis</text>
<text text-anchor="middle" x="479" y="-68.3" font-family="Times,serif" font-size="14.00">T=523 K</text>
<text text-anchor="middle" x="479" y="-53.3" font-family="Times,serif" font-size="14.00">P=50&#45;100 bar</text>
</g>
<!-- CO2&#45;&gt;HP -->
<g id="edge1" class="edge">
<title>CO2&#45;&gt;HP</title>
<path fill="none" stroke="black" d="M309.08,-30.25C338.29,-37.47 375.71,-46.72 407.91,-54.68"/>
<polygon fill="black" stroke="black" points="407.17,-58.1 417.72,-57.1 408.85,-51.3 407.17,-58.1"/>
<text text-anchor="middle" x="363.5" y="-54.8" font-family="Times,serif" font-size="14.00">Compression</text>
</g>
<!-- H2 -->
<g id="node2" class="node">
<title>H2</title>
<text text-anchor="middle" x="258.5" y="-122.3" font-family="Times,serif" font-size="14.00" fill="green">Hydrogen</text>
</g>
<!-- H2&#45;&gt;HP -->
<g id="edge2" class="edge">
<title>H2&#45;&gt;HP</title>
<path fill="none" stroke="black" d="M294.12,-117.44C324.61,-109.91 369.95,-98.7 407.98,-89.31"/>
<polygon fill="black" stroke="black" points="409.11,-92.63 417.98,-86.83 407.43,-85.83 409.11,-92.63"/>
<text text-anchor="middle" x="363.5" y="-111.8" font-family="Times,serif" font-size="14.00">Compression</text>
</g>
<!-- Air -->
<g id="node3" class="node">
<title>Air</title>
<text text-anchor="middle" x="27" y="-14.3" font-family="Times,serif" font-size="14.00">Air</text>
</g>
<!-- CD -->
<g id="node7" class="node">
<title>CD</title>
<polygon fill="none" stroke="black" points="170,-36 92,-36 92,0 170,0 170,-36"/>
<text text-anchor="middle" x="131" y="-14.3" font-family="Times,serif" font-size="14.00">Air capture</text>
</g>
<!-- Air&#45;&gt;CD -->
<g id="edge4" class="edge">
<title>Air&#45;&gt;CD</title>
<path fill="none" stroke="black" d="M54,-18C62.41,-18 72.03,-18 81.52,-18"/>
<polygon fill="black" stroke="black" points="81.72,-21.5 91.72,-18 81.72,-14.5 81.72,-21.5"/>
</g>
<!-- Methanol -->
<g id="node4" class="node">
<title>Methanol</title>
<text text-anchor="middle" x="611.5" y="-68.3" font-family="Times,serif" font-size="14.00">Methanol</text>
</g>
<!-- Water -->
<g id="node5" class="node">
<title>Water</title>
<text text-anchor="middle" x="27" y="-122.3" font-family="Times,serif" font-size="14.00">Water</text>
</g>
<!-- Electrolysis -->
<g id="node8" class="node">
<title>Electrolysis</title>
<polygon fill="none" stroke="black" points="171,-144 91,-144 91,-108 171,-108 171,-144"/>
<text text-anchor="middle" x="131" y="-122.3" font-family="Times,serif" font-size="14.00">Electrolysis</text>
</g>
<!-- Water&#45;&gt;Electrolysis -->
<g id="edge6" class="edge">
<title>Water&#45;&gt;Electrolysis</title>
<path fill="none" stroke="black" d="M54,-126C62.24,-126 71.63,-126 80.93,-126"/>
<polygon fill="black" stroke="black" points="80.94,-129.5 90.94,-126 80.94,-122.5 80.94,-129.5"/>
</g>
<!-- HP&#45;&gt;Methanol -->
<g id="edge3" class="edge">
<title>HP&#45;&gt;Methanol</title>
<path fill="none" stroke="black" d="M540.28,-72C549.21,-72 558.26,-72 566.76,-72"/>
<polygon fill="black" stroke="black" points="566.82,-75.5 576.82,-72 566.82,-68.5 566.82,-75.5"/>
</g>
<!-- CD&#45;&gt;CO2 -->
<g id="edge5" class="edge">
<title>CD&#45;&gt;CO2</title>
<path fill="none" stroke="black" d="M170.34,-18C179.02,-18 188.44,-18 197.77,-18"/>
<polygon fill="black" stroke="black" points="197.82,-21.5 207.82,-18 197.82,-14.5 197.82,-21.5"/>
</g>
<!-- Electrolysis&#45;&gt;H2 -->
<g id="edge7" class="edge">
<title>Electrolysis&#45;&gt;H2</title>
<path fill="none" stroke="black" d="M171.02,-126C184.21,-126 199.04,-126 212.64,-126"/>
<polygon fill="black" stroke="black" points="212.76,-129.5 222.76,-126 212.76,-122.5 212.76,-129.5"/>
</g>
<!-- Heat -->
<g id="node9" class="node">
<title>Heat</title>
<polygon fill="none" stroke="red" points="285.5,-90 231.5,-90 231.5,-54 285.5,-54 285.5,-90"/>
<text text-anchor="middle" x="258.5" y="-68.3" font-family="Times,serif" font-size="14.00" fill="red">Heat</text>
</g>
<!-- Heat&#45;&gt;HP -->
<g id="edge8" class="edge">
<title>Heat&#45;&gt;HP</title>
<path fill="none" stroke="red" d="M285.86,-72C315.85,-72 366.05,-72 407.62,-72"/>
<polygon fill="red" stroke="red" points="407.71,-75.5 417.71,-72 407.71,-68.5 407.71,-75.5"/>
</g>
</g>
</svg>
