<?xml version="1.0" encoding="UTF-8" standalone="no"?>
<!DOCTYPE svg PUBLIC "-//W3C//DTD SVG 1.1//EN"
 "http://www.w3.org/Graphics/SVG/1.1/DTD/svg11.dtd">
<!-- Generated by graphviz version 2.42.3 (20191010.1750)
 -->
<!-- Title: Process flow diagram Pages: 1 -->
<svg width="634pt" height="152pt"
 viewBox="0.00 0.00 634.00 152.00" xmlns="http://www.w3.org/2000/svg" xmlns:xlink="http://www.w3.org/1999/xlink">
<g id="graph0" class="graph" transform="scale(1 1) rotate(0) translate(4 148)">
<title>Process flow diagram</title>
<polygon fill="white" stroke="transparent" points="-4,4 -4,-148 630,-148 630,4 -4,4"/>
<!-- CO2 -->
<g id="node1" class="node">
<title>CO2</title>
<text text-anchor="middle" x="258.5" y="-14.3" font-family="Times,serif" font-size="14.00">Carbon dioxide</text>
</g>
<!-- HP -->
<g id="node6" class="node">
<title>HP</title>
<polygon fill="none" stroke="black" points="524,-98.5 418,-98.5 418,-45.5 524,-45.5 524,-98.5"/>
<text text-anchor="middle" x="471" y="-83.3" font-family="Times,serif" font-size="14.00">Sabatier Process</text>
<text text-anchor="middle" x="471" y="-68.3" font-family="Times,serif" font-size="14.00">T=673 K</text>
<text text-anchor="middle" x="471" y="-53.3" font-family="Times,serif" font-size="14.00">P=100 bar</text>
</g>
<!-- CO2&#45;&gt;HP -->
<g id="edge1" class="edge">
<title>CO2&#45;&gt;HP</title>
<path fill="none" stroke="black" d="M309.31,-30.14C336.2,-36.76 369.96,-45.18 400,-53 402.6,-53.68 405.24,-54.37 407.92,-55.08"/>
<polygon fill="black" stroke="black" points="407.1,-58.48 417.66,-57.67 408.9,-51.72 407.1,-58.48"/>
<text text-anchor="middle" x="363.5" y="-56.8" font-family="Times,serif" font-size="14.00">Compression</text>
</g>
<!-- H2 -->
<g id="node2" class="node">
<title>H2</title>
<text text-anchor="middle" x="258.5" y="-122.3" font-family="Times,serif" font-size="14.00">Hydrogen</text>
</g>
<!-- H2&#45;&gt;HP -->
<g id="edge2" class="edge">
<title>H2&#45;&gt;HP</title>
<path fill="none" stroke="black" d="M294.26,-117.08C325.13,-109.16 370.98,-97.4 408.1,-87.88"/>
<polygon fill="black" stroke="black" points="409.01,-91.26 417.83,-85.38 407.28,-84.48 409.01,-91.26"/>
<text text-anchor="middle" x="363.5" y="-111.8" font-family="Times,serif" font-size="14.00">Compression</text>
</g>
<!-- Air -->
<g id="node3" class="node">
<title>Air</title>
<text text-anchor="middle" x="27" y="-14.3" font-family="Times,serif" font-size="14.00">Air</text>
</g>
<!-- CD -->
<g id="node7" class="node">
<title>CD</title>
<polygon fill="none" stroke="black" points="170,-36 92,-36 92,0 170,0 170,-36"/>
<text text-anchor="middle" x="131" y="-14.3" font-family="Times,serif" font-size="14.00">Air capture</text>
</g>
<!-- Air&#45;&gt;CD -->
<g id="edge4" class="edge">
<title>Air&#45;&gt;CD</title>
<path fill="none" stroke="black" d="M54,-18C62.41,-18 72.03,-18 81.52,-18"/>
<polygon fill="black" stroke="black" points="81.72,-21.5 91.72,-18 81.72,-14.5 81.72,-21.5"/>
</g>
<!-- Methane -->
<g id="node4" class="node">
<title>Methane</title>
<text text-anchor="middle" x="593.5" y="-68.3" font-family="Times,serif" font-size="14.00">Methane</text>
</g>
<!-- Water -->
<g id="node5" class="node">
<title>Water</title>
<text text-anchor="middle" x="27" y="-122.3" font-family="Times,serif" font-size="14.00">Water</text>
</g>
<!-- Electrolysis -->
<g id="node8" class="node">
<title>Electrolysis</title>
<polygon fill="none" stroke="black" points="171,-144 91,-144 91,-108 171,-108 171,-144"/>
<text text-anchor="middle" x="131" y="-122.3" font-family="Times,serif" font-size="14.00">Electrolysis</text>
</g>
<!-- Water&#45;&gt;Electrolysis -->
<g id="edge6" class="edge">
<title>Water&#45;&gt;Electrolysis</title>
<path fill="none" stroke="black" d="M54,-126C62.24,-126 71.63,-126 80.93,-126"/>
<polygon fill="black" stroke="black" points="80.94,-129.5 90.94,-126 80.94,-122.5 80.94,-129.5"/>
</g>
<!-- HP&#45;&gt;Methane -->
<g id="edge3" class="edge">
<title>HP&#45;&gt;Methane</title>
<path fill="none" stroke="black" d="M524.15,-72C533.02,-72 542.12,-72 550.67,-72"/>
<polygon fill="black" stroke="black" points="550.78,-75.5 560.78,-72 550.78,-68.5 550.78,-75.5"/>
</g>
<!-- CD&#45;&gt;CO2 -->
<g id="edge5" class="edge">
<title>CD&#45;&gt;CO2</title>
<path fill="none" stroke="black" d="M170.34,-18C179.02,-18 188.44,-18 197.77,-18"/>
<polygon fill="black" stroke="black" points="197.82,-21.5 207.82,-18 197.82,-14.5 197.82,-21.5"/>
</g>
<!-- Electrolysis&#45;&gt;H2 -->
<g id="edge7" class="edge">
<title>Electrolysis&#45;&gt;H2</title>
<path fill="none" stroke="black" d="M171.02,-126C184.21,-126 199.04,-126 212.64,-126"/>
<polygon fill="black" stroke="black" points="212.76,-129.5 222.76,-126 212.76,-122.5 212.76,-129.5"/>
</g>
<!-- Heat -->
<g id="node9" class="node">
<title>Heat</title>
<polygon fill="none" stroke="red" points="285.5,-90 231.5,-90 231.5,-54 285.5,-54 285.5,-90"/>
<text text-anchor="middle" x="258.5" y="-68.3" font-family="Times,serif" font-size="14.00" fill="red">Heat</text>
</g>
<!-- Heat&#45;&gt;HP -->
<g id="edge8" class="edge">
<title>Heat&#45;&gt;HP</title>
<path fill="none" stroke="red" d="M285.73,-72C316.11,-72 367.19,-72 407.87,-72"/>
<polygon fill="red" stroke="red" points="407.97,-75.5 417.97,-72 407.97,-68.5 407.97,-75.5"/>
</g>
</g>
</svg>
