<?xml version="1.0" encoding="UTF-8" standalone="no"?>
<!DOCTYPE svg PUBLIC "-//W3C//DTD SVG 1.1//EN"
 "http://www.w3.org/Graphics/SVG/1.1/DTD/svg11.dtd">
<!-- Generated by graphviz version 2.42.3 (20191010.1750)
 -->
<!-- Title: hydrogen production Pages: 1 -->
<svg width="850pt" height="314pt"
 viewBox="0.00 0.00 850.07 314.00" xmlns="http://www.w3.org/2000/svg" xmlns:xlink="http://www.w3.org/1999/xlink">
<g id="graph0" class="graph" transform="scale(1 1) rotate(0) translate(4 310)">
<title>hydrogen production</title>
<polygon fill="white" stroke="transparent" points="-4,4 -4,-310 846.07,-310 846.07,4 -4,4"/>
<!-- grid -->
<g id="node1" class="node">
<title>grid</title>
<text text-anchor="middle" x="793.07" y="-203.3" font-family="Times,serif" font-size="14.00">Electricity grid</text>
</g>
<!-- storage -->
<g id="node2" class="node">
<title>storage</title>
<polygon fill="none" stroke="black" points="677.5,-144 591.57,-144 560.97,-108 708.1,-108 677.5,-144"/>
<text text-anchor="middle" x="634.53" y="-122.3" font-family="Times,serif" font-size="14.00">Storage site</text>
</g>
<!-- renewable -->
<g id="node3" class="node">
<title>renewable</title>
<polygon fill="green" stroke="black" points="156,-306 0,-306 0,-270 156,-270 156,-306"/>
<text text-anchor="middle" x="78" y="-284.3" font-family="Times,serif" font-size="14.00">Renewable energy source</text>
</g>
<!-- elec2 -->
<g id="node9" class="node">
<title>elec2</title>
<polygon fill="none" stroke="black" points="265,-306 192,-306 192,-270 265,-270 265,-306"/>
<text text-anchor="middle" x="228.5" y="-284.3" font-family="Times,serif" font-size="14.00">Electricity</text>
</g>
<!-- renewable&#45;&gt;elec2 -->
<g id="edge1" class="edge">
<title>renewable&#45;&gt;elec2</title>
<path fill="none" stroke="black" d="M156.34,-288C156.34,-288 181.92,-288 181.92,-288"/>
<polygon fill="black" stroke="black" points="181.92,-291.5 191.92,-288 181.92,-284.5 181.92,-291.5"/>
</g>
<!-- gas -->
<g id="node4" class="node">
<title>gas</title>
<polygon fill="gray" stroke="black" points="255.5,-90 201.5,-90 201.5,-54 255.5,-54 255.5,-90"/>
<text text-anchor="middle" x="228.5" y="-68.3" font-family="Times,serif" font-size="14.00">Gas</text>
</g>
<!-- smr -->
<g id="node13" class="node">
<title>smr</title>
<polygon fill="none" stroke="black" points="371.5,-144 317.5,-144 317.5,-108 371.5,-108 371.5,-144"/>
<text text-anchor="middle" x="344.5" y="-122.3" font-family="Times,serif" font-size="14.00">SMR</text>
</g>
<!-- gas&#45;&gt;smr -->
<g id="edge7" class="edge">
<title>gas&#45;&gt;smr</title>
<path fill="none" stroke="black" d="M255.78,-78C269.42,-78 283.07,-78 283.07,-78 283.07,-78 283.07,-117 283.07,-117 283.07,-117 307.37,-117 307.37,-117"/>
<polygon fill="black" stroke="black" points="307.37,-120.5 317.37,-117 307.37,-113.5 307.37,-120.5"/>
</g>
<!-- pp -->
<g id="node18" class="node">
<title>pp</title>
<polygon fill="none" stroke="black" points="388,-90 301,-90 301,-54 388,-54 388,-90"/>
<text text-anchor="middle" x="344.5" y="-68.3" font-family="Times,serif" font-size="14.00">Power plants</text>
</g>
<!-- gas&#45;&gt;pp -->
<g id="edge4" class="edge">
<title>gas&#45;&gt;pp</title>
<path fill="none" stroke="black" d="M255.7,-66C255.7,-66 290.68,-66 290.68,-66"/>
<polygon fill="black" stroke="black" points="290.68,-69.5 300.68,-66 290.68,-62.5 290.68,-69.5"/>
</g>
<!-- oil -->
<g id="node5" class="node">
<title>oil</title>
<polygon fill="black" stroke="black" points="255.5,-36 201.5,-36 201.5,0 255.5,0 255.5,-36"/>
<text text-anchor="middle" x="228.5" y="-14.3" font-family="Times,serif" font-size="14.00" fill="white">Oil</text>
</g>
<!-- oil&#45;&gt;pp -->
<g id="edge3" class="edge">
<title>oil&#45;&gt;pp</title>
<path fill="none" stroke="black" d="M255.54,-18C289.97,-18 345.07,-18 345.07,-18 345.07,-18 345.07,-43.72 345.07,-43.72"/>
<polygon fill="black" stroke="black" points="341.57,-43.72 345.07,-53.72 348.57,-43.72 341.57,-43.72"/>
</g>
<!-- coal -->
<g id="node6" class="node">
<title>coal</title>
<polygon fill="saddlebrown" stroke="black" points="255.5,-144 201.5,-144 201.5,-108 255.5,-108 255.5,-144"/>
<text text-anchor="middle" x="228.5" y="-122.3" font-family="Times,serif" font-size="14.00" fill="white">Coal</text>
</g>
<!-- gasification -->
<g id="node12" class="node">
<title>gasification</title>
<polygon fill="none" stroke="black" points="386,-198 303,-198 303,-162 386,-162 386,-198"/>
<text text-anchor="middle" x="344.5" y="-176.3" font-family="Times,serif" font-size="14.00">Gasification</text>
</g>
<!-- coal&#45;&gt;gasification -->
<g id="edge8" class="edge">
<title>coal&#45;&gt;gasification</title>
<path fill="none" stroke="black" d="M255.72,-135C280.44,-135 313.07,-135 313.07,-135 313.07,-135 313.07,-151.96 313.07,-151.96"/>
<polygon fill="black" stroke="black" points="309.57,-151.96 313.07,-161.96 316.57,-151.96 309.57,-151.96"/>
</g>
<!-- coal&#45;&gt;pp -->
<g id="edge2" class="edge">
<title>coal&#45;&gt;pp</title>
<path fill="none" stroke="black" d="M255.88,-126C278.9,-126 308.07,-126 308.07,-126 308.07,-126 308.07,-100.28 308.07,-100.28"/>
<polygon fill="black" stroke="black" points="311.57,-100.28 308.07,-90.28 304.57,-100.28 311.57,-100.28"/>
</g>
<!-- biomass -->
<g id="node7" class="node">
<title>biomass</title>
<polygon fill="springgreen" stroke="black" points="260.5,-198 196.5,-198 196.5,-162 260.5,-162 260.5,-198"/>
<text text-anchor="middle" x="228.5" y="-176.3" font-family="Times,serif" font-size="14.00">Biomass</text>
</g>
<!-- biomass&#45;&gt;gasification -->
<g id="edge9" class="edge">
<title>biomass&#45;&gt;gasification</title>
<path fill="none" stroke="black" d="M260.5,-180C260.5,-180 292.6,-180 292.6,-180"/>
<polygon fill="black" stroke="black" points="292.6,-183.5 302.6,-180 292.6,-176.5 292.6,-183.5"/>
</g>
<!-- elec -->
<g id="node8" class="node">
<title>elec</title>
<polygon fill="none" stroke="black" points="671.03,-90 598.03,-90 598.03,-54 671.03,-54 671.03,-90"/>
<text text-anchor="middle" x="634.53" y="-68.3" font-family="Times,serif" font-size="14.00">Electricity</text>
</g>
<!-- elec&#45;&gt;grid -->
<g id="edge20" class="edge">
<title>elec&#45;&gt;grid</title>
<path fill="none" stroke="black" d="M671.13,-72C718.23,-72 794.07,-72 794.07,-72 794.07,-72 794.07,-178.79 794.07,-178.79"/>
<polygon fill="black" stroke="black" points="790.57,-178.79 794.07,-188.79 797.57,-178.79 790.57,-178.79"/>
</g>
<!-- elec2&#45;&gt;grid -->
<g id="edge21" class="edge">
<title>elec2&#45;&gt;grid</title>
<path fill="none" stroke="black" d="M265.17,-294C390.5,-294 794.07,-294 794.07,-294 794.07,-294 794.07,-235.03 794.07,-235.03"/>
<polygon fill="black" stroke="black" points="797.57,-235.03 794.07,-225.03 790.57,-235.03 797.57,-235.03"/>
</g>
<!-- electrolysis -->
<g id="node17" class="node">
<title>electrolysis</title>
<polygon fill="none" stroke="black" points="384.5,-252 304.5,-252 304.5,-216 384.5,-216 384.5,-252"/>
<text text-anchor="middle" x="344.5" y="-230.3" font-family="Times,serif" font-size="14.00">Electrolysis</text>
</g>
<!-- elec2&#45;&gt;electrolysis -->
<g id="edge14" class="edge">
<title>elec2&#45;&gt;electrolysis</title>
<path fill="none" stroke="black" d="M265.06,-282C299.25,-282 345.07,-282 345.07,-282 345.07,-282 345.07,-262.15 345.07,-262.15"/>
<polygon fill="black" stroke="black" points="348.57,-262.15 345.07,-252.15 341.57,-262.15 348.57,-262.15"/>
</g>
<!-- elec3 -->
<g id="node10" class="node">
<title>elec3</title>
<polygon fill="none" stroke="black" points="671.03,-225 598.03,-225 598.03,-189 671.03,-189 671.03,-225"/>
<text text-anchor="middle" x="634.53" y="-203.3" font-family="Times,serif" font-size="14.00">Electricity</text>
</g>
<!-- elec3&#45;&gt;grid -->
<g id="edge19" class="edge">
<title>elec3&#45;&gt;grid</title>
<path fill="none" stroke="black" d="M671.3,-207C671.3,-207 733.88,-207 733.88,-207"/>
<polygon fill="black" stroke="black" points="733.88,-210.5 743.88,-207 733.88,-203.5 733.88,-210.5"/>
</g>
<!-- water -->
<g id="node11" class="node">
<title>water</title>
<polygon fill="aqua" stroke="black" points="255.5,-252 201.5,-252 201.5,-216 255.5,-216 255.5,-252"/>
<text text-anchor="middle" x="228.5" y="-230.3" font-family="Times,serif" font-size="14.00">Water</text>
</g>
<!-- water&#45;&gt;electrolysis -->
<g id="edge15" class="edge">
<title>water&#45;&gt;electrolysis</title>
<path fill="none" stroke="black" d="M255.7,-234C255.7,-234 294.28,-234 294.28,-234"/>
<polygon fill="black" stroke="black" points="294.28,-237.5 304.28,-234 294.28,-230.5 294.28,-237.5"/>
</g>
<!-- h2 -->
<g id="node14" class="node">
<title>h2</title>
<polygon fill="none" stroke="black" points="510,-198 439,-198 439,-162 510,-162 510,-198"/>
<text text-anchor="middle" x="474.5" y="-176.3" font-family="Times,serif" font-size="14.00" fill="blue">Hydrogen</text>
</g>
<!-- gasification&#45;&gt;h2 -->
<g id="edge12" class="edge">
<title>gasification&#45;&gt;h2</title>
<path fill="none" stroke="black" d="M386.35,-186C386.35,-186 428.84,-186 428.84,-186"/>
<polygon fill="black" stroke="black" points="428.84,-189.5 438.84,-186 428.84,-182.5 428.84,-189.5"/>
</g>
<!-- co2 -->
<g id="node16" class="node">
<title>co2</title>
<polygon fill="none" stroke="black" points="525,-144 424,-144 424,-108 525,-108 525,-144"/>
<text text-anchor="middle" x="474.5" y="-122.3" font-family="Times,serif" font-size="14.00">Carbon dioxide</text>
</g>
<!-- gasification&#45;&gt;co2 -->
<g id="edge13" class="edge">
<title>gasification&#45;&gt;co2</title>
<path fill="none" stroke="black" d="M382.07,-161.93C382.07,-150.09 382.07,-136.8 382.07,-136.8 382.07,-136.8 413.96,-136.8 413.96,-136.8"/>
<polygon fill="black" stroke="black" points="413.96,-140.3 423.96,-136.8 413.96,-133.3 413.96,-140.3"/>
</g>
<!-- smr&#45;&gt;h2 -->
<g id="edge10" class="edge">
<title>smr&#45;&gt;h2</title>
<path fill="none" stroke="black" d="M371.68,-129.6C388.18,-129.6 406.07,-129.6 406.07,-129.6 406.07,-129.6 406.07,-174 406.07,-174 406.07,-174 428.68,-174 428.68,-174"/>
<polygon fill="black" stroke="black" points="428.68,-177.5 438.68,-174 428.68,-170.5 428.68,-177.5"/>
</g>
<!-- smr&#45;&gt;co2 -->
<g id="edge11" class="edge">
<title>smr&#45;&gt;co2</title>
<path fill="none" stroke="black" d="M371.75,-122.4C371.75,-122.4 413.92,-122.4 413.92,-122.4"/>
<polygon fill="black" stroke="black" points="413.92,-125.9 423.92,-122.4 413.92,-118.9 413.92,-125.9"/>
</g>
<!-- h2&#45;&gt;elec3 -->
<g id="edge17" class="edge">
<title>h2&#45;&gt;elec3</title>
<path fill="none" stroke="black" d="M510.02,-193.5C510.02,-193.5 588.01,-193.5 588.01,-193.5"/>
<polygon fill="black" stroke="black" points="588.01,-197 598.01,-193.5 588.01,-190 588.01,-197"/>
</g>
<!-- h2g -->
<g id="node15" class="node">
<title>h2g</title>
<polygon fill="none" stroke="black" points="510,-252 439,-252 439,-216 510,-216 510,-252"/>
<text text-anchor="middle" x="474.5" y="-230.3" font-family="Times,serif" font-size="14.00" fill="green">Hydrogen</text>
</g>
<!-- h2g&#45;&gt;elec3 -->
<g id="edge18" class="edge">
<title>h2g&#45;&gt;elec3</title>
<path fill="none" stroke="black" d="M510.02,-220.5C510.02,-220.5 588.01,-220.5 588.01,-220.5"/>
<polygon fill="black" stroke="black" points="588.01,-224 598.01,-220.5 588.01,-217 588.01,-224"/>
</g>
<!-- co2&#45;&gt;storage -->
<g id="edge22" class="edge">
<title>co2&#45;&gt;storage</title>
<path fill="none" stroke="black" d="M525.14,-126C525.14,-126 566.13,-126 566.13,-126"/>
<polygon fill="black" stroke="black" points="566.13,-129.5 576.13,-126 566.13,-122.5 566.13,-129.5"/>
</g>
<!-- electrolysis&#45;&gt;h2g -->
<g id="edge16" class="edge">
<title>electrolysis&#45;&gt;h2g</title>
<path fill="none" stroke="black" d="M384.57,-234C384.57,-234 428.76,-234 428.76,-234"/>
<polygon fill="black" stroke="black" points="428.76,-237.5 438.76,-234 428.76,-230.5 428.76,-237.5"/>
</g>
<!-- pp&#45;&gt;elec -->
<g id="edge5" class="edge">
<title>pp&#45;&gt;elec</title>
<path fill="none" stroke="black" d="M388.23,-72C388.23,-72 587.81,-72 587.81,-72"/>
<polygon fill="black" stroke="black" points="587.81,-75.5 597.81,-72 587.81,-68.5 587.81,-75.5"/>
</g>
<!-- pp&#45;&gt;co2 -->
<g id="edge6" class="edge">
<title>pp&#45;&gt;co2</title>
<path fill="none" stroke="black" d="M377.07,-90.07C377.07,-101.91 377.07,-115.2 377.07,-115.2 377.07,-115.2 413.78,-115.2 413.78,-115.2"/>
<polygon fill="black" stroke="black" points="413.78,-118.7 423.78,-115.2 413.78,-111.7 413.78,-118.7"/>
</g>
</g>
</svg>
