<?xml version="1.0" encoding="UTF-8" standalone="no"?>
<!DOCTYPE svg PUBLIC "-//W3C//DTD SVG 1.1//EN"
 "http://www.w3.org/Graphics/SVG/1.1/DTD/svg11.dtd">
<!-- Generated by graphviz version 2.42.3 (20191010.1750)
 -->
<!-- Title: Process flow diagram Pages: 1 -->
<svg width="776pt" height="314pt"
 viewBox="0.00 0.00 776.00 314.00" xmlns="http://www.w3.org/2000/svg" xmlns:xlink="http://www.w3.org/1999/xlink">
<g id="graph0" class="graph" transform="scale(1 1) rotate(0) translate(4 310)">
<title>Process flow diagram</title>
<polygon fill="white" stroke="transparent" points="-4,4 -4,-310 772,-310 772,4 -4,4"/>
<!-- grid -->
<g id="node1" class="node">
<title>grid</title>
<text text-anchor="middle" x="719" y="-209.3" font-family="Times,serif" font-size="14.00">Electricity grid</text>
</g>
<!-- renewable -->
<g id="node2" class="node">
<title>renewable</title>
<polygon fill="green" stroke="black" points="156,-306 0,-306 0,-270 156,-270 156,-306"/>
<text text-anchor="middle" x="78" y="-284.3" font-family="Times,serif" font-size="14.00">Renewable energy source</text>
</g>
<!-- elec2 -->
<g id="node8" class="node">
<title>elec2</title>
<polygon fill="none" stroke="black" points="265,-306 192,-306 192,-270 265,-270 265,-306"/>
<text text-anchor="middle" x="228.5" y="-284.3" font-family="Times,serif" font-size="14.00">Electricity</text>
</g>
<!-- renewable&#45;&gt;elec2 -->
<g id="edge1" class="edge">
<title>renewable&#45;&gt;elec2</title>
<path fill="none" stroke="black" d="M156.29,-288C164.92,-288 173.49,-288 181.54,-288"/>
<polygon fill="black" stroke="black" points="181.78,-291.5 191.78,-288 181.78,-284.5 181.78,-291.5"/>
</g>
<!-- gas -->
<g id="node3" class="node">
<title>gas</title>
<polygon fill="gray" stroke="black" points="255.5,-90 201.5,-90 201.5,-54 255.5,-54 255.5,-90"/>
<text text-anchor="middle" x="228.5" y="-68.3" font-family="Times,serif" font-size="14.00">Gas</text>
</g>
<!-- smr -->
<g id="node12" class="node">
<title>smr</title>
<polygon fill="none" stroke="black" points="371.5,-144 317.5,-144 317.5,-108 371.5,-108 371.5,-144"/>
<text text-anchor="middle" x="344.5" y="-122.3" font-family="Times,serif" font-size="14.00">SMR</text>
</g>
<!-- gas&#45;&gt;smr -->
<g id="edge7" class="edge">
<title>gas&#45;&gt;smr</title>
<path fill="none" stroke="black" d="M255.65,-84.39C271.29,-91.8 291.37,-101.31 308.38,-109.36"/>
<polygon fill="black" stroke="black" points="306.93,-112.55 317.47,-113.67 309.93,-106.22 306.93,-112.55"/>
</g>
<!-- pp -->
<g id="node17" class="node">
<title>pp</title>
<polygon fill="none" stroke="black" points="388,-90 301,-90 301,-54 388,-54 388,-90"/>
<text text-anchor="middle" x="344.5" y="-68.3" font-family="Times,serif" font-size="14.00">Power plants</text>
</g>
<!-- gas&#45;&gt;pp -->
<g id="edge4" class="edge">
<title>gas&#45;&gt;pp</title>
<path fill="none" stroke="black" d="M255.65,-72C266.13,-72 278.6,-72 290.8,-72"/>
<polygon fill="black" stroke="black" points="290.94,-75.5 300.94,-72 290.94,-68.5 290.94,-75.5"/>
</g>
<!-- oil -->
<g id="node4" class="node">
<title>oil</title>
<polygon fill="black" stroke="black" points="255.5,-36 201.5,-36 201.5,0 255.5,0 255.5,-36"/>
<text text-anchor="middle" x="228.5" y="-14.3" font-family="Times,serif" font-size="14.00" fill="white">Oil</text>
</g>
<!-- oil&#45;&gt;pp -->
<g id="edge3" class="edge">
<title>oil&#45;&gt;pp</title>
<path fill="none" stroke="black" d="M255.65,-30.39C267.62,-36.06 282.18,-42.95 295.97,-49.49"/>
<polygon fill="black" stroke="black" points="294.83,-52.82 305.36,-53.93 297.82,-46.49 294.83,-52.82"/>
</g>
<!-- coal -->
<g id="node5" class="node">
<title>coal</title>
<polygon fill="saddlebrown" stroke="black" points="255.5,-144 201.5,-144 201.5,-108 255.5,-108 255.5,-144"/>
<text text-anchor="middle" x="228.5" y="-122.3" font-family="Times,serif" font-size="14.00" fill="white">Coal</text>
</g>
<!-- gasification -->
<g id="node11" class="node">
<title>gasification</title>
<polygon fill="none" stroke="black" points="386,-198 303,-198 303,-162 386,-162 386,-198"/>
<text text-anchor="middle" x="344.5" y="-176.3" font-family="Times,serif" font-size="14.00">Gasification</text>
</g>
<!-- coal&#45;&gt;gasification -->
<g id="edge8" class="edge">
<title>coal&#45;&gt;gasification</title>
<path fill="none" stroke="black" d="M255.65,-138.39C267.62,-144.06 282.18,-150.95 295.97,-157.49"/>
<polygon fill="black" stroke="black" points="294.83,-160.82 305.36,-161.93 297.82,-154.49 294.83,-160.82"/>
</g>
<!-- coal&#45;&gt;pp -->
<g id="edge2" class="edge">
<title>coal&#45;&gt;pp</title>
<path fill="none" stroke="black" d="M255.65,-113.61C267.62,-107.94 282.18,-101.05 295.97,-94.51"/>
<polygon fill="black" stroke="black" points="297.82,-97.51 305.36,-90.07 294.83,-91.18 297.82,-97.51"/>
</g>
<!-- biomass -->
<g id="node6" class="node">
<title>biomass</title>
<polygon fill="springgreen" stroke="black" points="260.5,-198 196.5,-198 196.5,-162 260.5,-162 260.5,-198"/>
<text text-anchor="middle" x="228.5" y="-176.3" font-family="Times,serif" font-size="14.00">Biomass</text>
</g>
<!-- biomass&#45;&gt;gasification -->
<g id="edge9" class="edge">
<title>biomass&#45;&gt;gasification</title>
<path fill="none" stroke="black" d="M260.65,-180C270.54,-180 281.75,-180 292.66,-180"/>
<polygon fill="black" stroke="black" points="292.97,-183.5 302.97,-180 292.97,-176.5 292.97,-183.5"/>
</g>
<!-- elec -->
<g id="node7" class="node">
<title>elec</title>
<polygon fill="none" stroke="black" points="634,-127 561,-127 561,-91 634,-91 634,-127"/>
<text text-anchor="middle" x="597.5" y="-105.3" font-family="Times,serif" font-size="14.00">Electricity</text>
</g>
<!-- elec&#45;&gt;grid -->
<g id="edge20" class="edge">
<title>elec&#45;&gt;grid</title>
<path fill="none" stroke="black" d="M619.32,-127.12C638.73,-144.01 667.86,-169.36 689.44,-188.15"/>
<polygon fill="black" stroke="black" points="687.18,-190.82 697.02,-194.74 691.78,-185.54 687.18,-190.82"/>
</g>
<!-- elec2&#45;&gt;grid -->
<g id="edge21" class="edge">
<title>elec2&#45;&gt;grid</title>
<path fill="none" stroke="black" d="M265.25,-286.93C336.48,-284.1 500.75,-274.12 634,-240 642.52,-237.82 651.44,-235.26 660.15,-232.6"/>
<polygon fill="black" stroke="black" points="661.37,-235.89 669.87,-229.57 659.28,-229.2 661.37,-235.89"/>
</g>
<!-- electrolysis -->
<g id="node16" class="node">
<title>electrolysis</title>
<polygon fill="none" stroke="black" points="384.5,-252 304.5,-252 304.5,-216 384.5,-216 384.5,-252"/>
<text text-anchor="middle" x="344.5" y="-230.3" font-family="Times,serif" font-size="14.00">Electrolysis</text>
</g>
<!-- elec2&#45;&gt;electrolysis -->
<g id="edge14" class="edge">
<title>elec2&#45;&gt;electrolysis</title>
<path fill="none" stroke="black" d="M265.26,-271.06C274.96,-266.47 285.61,-261.42 295.85,-256.57"/>
<polygon fill="black" stroke="black" points="297.57,-259.63 305.1,-252.19 294.57,-253.31 297.57,-259.63"/>
</g>
<!-- elec3 -->
<g id="node9" class="node">
<title>elec3</title>
<polygon fill="none" stroke="black" points="634,-231 561,-231 561,-195 634,-195 634,-231"/>
<text text-anchor="middle" x="597.5" y="-209.3" font-family="Times,serif" font-size="14.00">Electricity</text>
</g>
<!-- elec3&#45;&gt;grid -->
<g id="edge19" class="edge">
<title>elec3&#45;&gt;grid</title>
<path fill="none" stroke="black" d="M634.03,-213C642.14,-213 650.97,-213 659.75,-213"/>
<polygon fill="black" stroke="black" points="659.99,-216.5 669.99,-213 659.99,-209.5 659.99,-216.5"/>
</g>
<!-- water -->
<g id="node10" class="node">
<title>water</title>
<polygon fill="aqua" stroke="black" points="255.5,-252 201.5,-252 201.5,-216 255.5,-216 255.5,-252"/>
<text text-anchor="middle" x="228.5" y="-230.3" font-family="Times,serif" font-size="14.00">Water</text>
</g>
<!-- water&#45;&gt;electrolysis -->
<g id="edge15" class="edge">
<title>water&#45;&gt;electrolysis</title>
<path fill="none" stroke="black" d="M255.65,-234C267.18,-234 281.11,-234 294.45,-234"/>
<polygon fill="black" stroke="black" points="294.48,-237.5 304.48,-234 294.48,-230.5 294.48,-237.5"/>
</g>
<!-- h2 -->
<g id="node13" class="node">
<title>h2</title>
<polygon fill="none" stroke="black" points="510,-198 439,-198 439,-162 510,-162 510,-198"/>
<text text-anchor="middle" x="474.5" y="-176.3" font-family="Times,serif" font-size="14.00" fill="blue">Hydrogen</text>
</g>
<!-- gasification&#45;&gt;h2 -->
<g id="edge12" class="edge">
<title>gasification&#45;&gt;h2</title>
<path fill="none" stroke="black" d="M386.35,-180C399.76,-180 414.74,-180 428.44,-180"/>
<polygon fill="black" stroke="black" points="428.63,-183.5 438.63,-180 428.63,-176.5 428.63,-183.5"/>
</g>
<!-- co2 -->
<g id="node15" class="node">
<title>co2</title>
<polygon fill="none" stroke="black" points="525,-144 424,-144 424,-108 525,-108 525,-144"/>
<text text-anchor="middle" x="474.5" y="-122.3" font-family="Times,serif" font-size="14.00">Carbon dioxide</text>
</g>
<!-- gasification&#45;&gt;co2 -->
<g id="edge13" class="edge">
<title>gasification&#45;&gt;co2</title>
<path fill="none" stroke="black" d="M386.35,-162.77C397.55,-158.04 409.84,-152.85 421.58,-147.91"/>
<polygon fill="black" stroke="black" points="422.98,-151.11 430.83,-144 420.26,-144.66 422.98,-151.11"/>
</g>
<!-- smr&#45;&gt;h2 -->
<g id="edge10" class="edge">
<title>smr&#45;&gt;h2</title>
<path fill="none" stroke="black" d="M371.71,-137.06C388.23,-144.03 409.98,-153.2 429.13,-161.28"/>
<polygon fill="black" stroke="black" points="428.01,-164.61 438.58,-165.27 430.73,-158.16 428.01,-164.61"/>
</g>
<!-- smr&#45;&gt;co2 -->
<g id="edge11" class="edge">
<title>smr&#45;&gt;co2</title>
<path fill="none" stroke="black" d="M371.71,-126C383.89,-126 398.92,-126 413.66,-126"/>
<polygon fill="black" stroke="black" points="413.77,-129.5 423.77,-126 413.77,-122.5 413.77,-129.5"/>
</g>
<!-- h2&#45;&gt;elec3 -->
<g id="edge17" class="edge">
<title>h2&#45;&gt;elec3</title>
<path fill="none" stroke="black" d="M510.17,-189.46C522.99,-192.95 537.7,-196.96 551.31,-200.68"/>
<polygon fill="black" stroke="black" points="550.41,-204.06 560.98,-203.31 552.25,-197.3 550.41,-204.06"/>
</g>
<!-- h2g -->
<g id="node14" class="node">
<title>h2g</title>
<polygon fill="none" stroke="black" points="510,-252 439,-252 439,-216 510,-216 510,-252"/>
<text text-anchor="middle" x="474.5" y="-230.3" font-family="Times,serif" font-size="14.00" fill="green">Hydrogen</text>
</g>
<!-- h2g&#45;&gt;elec3 -->
<g id="edge18" class="edge">
<title>h2g&#45;&gt;elec3</title>
<path fill="none" stroke="black" d="M510.17,-227.98C522.86,-225.78 537.42,-223.25 550.91,-220.91"/>
<polygon fill="black" stroke="black" points="551.73,-224.32 560.98,-219.16 550.53,-217.43 551.73,-224.32"/>
</g>
<!-- electrolysis&#45;&gt;h2g -->
<g id="edge16" class="edge">
<title>electrolysis&#45;&gt;h2g</title>
<path fill="none" stroke="black" d="M384.6,-234C398.56,-234 414.4,-234 428.79,-234"/>
<polygon fill="black" stroke="black" points="428.98,-237.5 438.98,-234 428.98,-230.5 428.98,-237.5"/>
</g>
<!-- pp&#45;&gt;elec -->
<g id="edge5" class="edge">
<title>pp&#45;&gt;elec</title>
<path fill="none" stroke="black" d="M388.08,-78.28C433.2,-84.93 504.2,-95.39 550.56,-102.23"/>
<polygon fill="black" stroke="black" points="550.23,-105.72 560.64,-103.71 551.25,-98.79 550.23,-105.72"/>
</g>
<!-- pp&#45;&gt;co2 -->
<g id="edge6" class="edge">
<title>pp&#45;&gt;co2</title>
<path fill="none" stroke="black" d="M388.12,-89.98C398.7,-94.44 410.15,-99.27 421.13,-103.91"/>
<polygon fill="black" stroke="black" points="420.05,-107.25 430.63,-107.91 422.77,-100.8 420.05,-107.25"/>
</g>
</g>
</svg>
